<?xml version="1.0" encoding="utf-8"?>
<!-- Generator: Adobe Illustrator 27.1.0, SVG Export Plug-In . SVG Version: 6.00 Build 0)  -->
<svg version="1.1" id="email" xmlns="http://www.w3.org/2000/svg" xmlns:xlink="http://www.w3.org/1999/xlink" x="0px" y="0px"
	 width="30px" height="30px" viewBox="0 0 30 30" style="enable-background:new 0 0 30 30;" xml:space="preserve">
<path d="M10.4,15l-7.2,4.7v-9.4L10.4,15z M19.6,15l7.2,4.7v-9.4L19.6,15z M18.5,15.7l-3.2,2.1c-0.1,0.1-0.2,0.1-0.3,0.1
	s-0.2,0-0.3-0.1l-3.2-2.1l-7.8,5.1l-0.5,0.3c0.1,0.8,0.9,1.4,1.7,1.4h20.2c0.9,0,1.6-0.6,1.7-1.4l-0.5-0.3
	C26.3,20.8,18.5,15.7,18.5,15.7z M15,16.6l11.3-7.4l0.5-0.3c-0.1-0.8-0.9-1.4-1.7-1.4H4.9c-0.9,0-1.6,0.6-1.7,1.4l0.5,0.3L15,16.6z"
	/>
</svg>
